<?xml version="1.0" standalone="no"?>
<!DOCTYPE svg PUBLIC "-//W3C//DTD SVG 1.1//EN" "http://www.w3.org/Graphics/SVG/1.1/DTD/svg11.dtd">
<svg xmlns:inkscape="http://www.inkscape.org/namespaces/inkscape" xmlns:sodipodi="http://sodipodi.sourceforge.net/DTD/sodipodi-0.dtd" xmlns="http://www.w3.org/2000/svg" xmlns:svg="http://www.w3.org/2000/svg" width="14.13716983795166" height="34.3237190246582" viewBox="0 0 14.13717 34.323719" version="1.1" id="svg1" xml:space="preserve" inkscape:version="1.3.2 (091e20e, 2023-11-25, custom)" sodipodi:docname="kwiat.svg"><sodipodi:namedview id="namedview1" pagecolor="#ffffff" bordercolor="#999999" borderopacity="1" inkscape:showpageshadow="2" inkscape:pageopacity="0" inkscape:pagecheckerboard="0" inkscape:deskcolor="#d1d1d1" inkscape:document-units="mm" inkscape:zoom="2.768771" inkscape:cx="275.75411" inkscape:cy="717.10516" inkscape:window-width="1920" inkscape:window-height="991" inkscape:window-x="-9" inkscape:window-y="849" inkscape:window-maximized="1" inkscape:current-layer="g1"><inkscape:page x="-1.1520491e-06" y="1.2385787e-05" width="14.13717" height="34.323719" id="page2" margin="0" bleed="0" inkscape:export-filename="kwiat.png" inkscape:export-xdpi="96" inkscape:export-ydpi="96"/></sodipodi:namedview><defs id="defs1"><clipPath clipPathUnits="userSpaceOnUse" id="clipPath28-6"><path d="m 181.44,255.03999 v 612.64 h 431.03998 v -612.64 z" transform="translate(-376.64001,-518.40003)" clip-rule="evenodd" id="path28-5"/></clipPath><clipPath clipPathUnits="userSpaceOnUse" id="clipPath30-3"><path d="m 181.44,255.03999 v 612.64 h 431.03998 v -612.64 z" transform="translate(-384.48001,-510.4)" clip-rule="evenodd" id="path30-3"/></clipPath><clipPath clipPathUnits="userSpaceOnUse" id="clipPath32-4"><path d="m 181.44,255.03999 v 612.64 h 431.03998 v -612.64 z" transform="translate(-387.20001,-515.52002)" clip-rule="evenodd" id="path32-2"/></clipPath><clipPath clipPathUnits="userSpaceOnUse" id="clipPath34-4"><path d="m 181.44,255.03999 v 612.64 h 431.03998 v -612.64 z" transform="translate(-387.20001,-516)" clip-rule="evenodd" id="path34-1"/></clipPath><clipPath clipPathUnits="userSpaceOnUse" id="clipPath36-0"><path d="m 181.44,255.03999 v 612.64 h 431.03998 v -612.64 z" transform="translate(-386.72,-528.96003)" clip-rule="evenodd" id="path36-6"/></clipPath><clipPath clipPathUnits="userSpaceOnUse" id="clipPath38-9"><path d="m 181.44,255.03999 v 612.64 h 431.03998 v -612.64 z" transform="translate(-388.79999,-540.96003)" clip-rule="evenodd" id="path38-1"/></clipPath><clipPath clipPathUnits="userSpaceOnUse" id="clipPath40-3"><path d="m 181.44,255.03999 v 612.64 h 431.03998 v -612.64 z" transform="translate(-383.04001,-528.64002)" clip-rule="evenodd" id="path40-7"/></clipPath><clipPath clipPathUnits="userSpaceOnUse" id="clipPath42-2"><path d="m 181.44,255.03999 v 612.64 h 431.03998 v -612.64 z" transform="translate(-404.64001,-509.28)" clip-rule="evenodd" id="path42-1"/></clipPath><clipPath clipPathUnits="userSpaceOnUse" id="clipPath44-7"><path d="m 181.44,255.03999 v 612.64 h 431.03998 v -612.64 z" transform="translate(-401.60001,-511.04001)" clip-rule="evenodd" id="path44-5"/></clipPath><clipPath clipPathUnits="userSpaceOnUse" id="clipPath46-5"><path d="m 181.44,255.03999 v 612.64 h 431.03998 v -612.64 z" transform="translate(-404.64001,-509.28)" clip-rule="evenodd" id="path46-1"/></clipPath><clipPath clipPathUnits="userSpaceOnUse" id="clipPath48-9"><path d="m 181.44,255.03999 v 612.64 h 431.03998 v -612.64 z" transform="translate(-411.84,-510.23999)" clip-rule="evenodd" id="path48-7"/></clipPath><clipPath clipPathUnits="userSpaceOnUse" id="clipPath50-6"><path d="m 181.44,255.03999 v 612.64 h 431.03998 v -612.64 z" transform="translate(-404.79999,-513.44001)" clip-rule="evenodd" id="path50-3"/></clipPath><clipPath clipPathUnits="userSpaceOnUse" id="clipPath52-1"><path d="m 181.44,255.03999 v 612.64 h 431.03998 v -612.64 z" transform="translate(-401.28,-514.56)" clip-rule="evenodd" id="path52-9"/></clipPath><clipPath clipPathUnits="userSpaceOnUse" id="clipPath54-5"><path d="m 181.44,255.03999 v 612.64 h 431.03998 v -612.64 z" transform="translate(-403.04001,-509.60001)" clip-rule="evenodd" id="path54-3"/></clipPath><clipPath clipPathUnits="userSpaceOnUse" id="clipPath56-9"><path d="m 181.44,255.03999 v 612.64 h 431.03998 v -612.64 z" transform="translate(-405.76001,-509.60001)" clip-rule="evenodd" id="path56-6"/></clipPath><clipPath clipPathUnits="userSpaceOnUse" id="clipPath58-7"><path d="m 181.44,255.03999 v 612.64 h 431.03998 v -612.64 z" transform="translate(-407.04001,-510.56)" clip-rule="evenodd" id="path58-7"/></clipPath><clipPath clipPathUnits="userSpaceOnUse" id="clipPath60-8"><path d="m 181.44,255.03999 v 612.64 h 431.03998 v -612.64 z" transform="translate(-386.23999,-518.23999)" clip-rule="evenodd" id="path60-1"/></clipPath><clipPath clipPathUnits="userSpaceOnUse" id="clipPath62-6"><path d="m 181.44,255.03999 v 612.64 h 431.03998 v -612.64 z" transform="translate(-407.04001,-513.28003)" clip-rule="evenodd" id="path62-1"/></clipPath><clipPath clipPathUnits="userSpaceOnUse" id="clipPath64-3"><path d="m 181.44,255.03999 v 612.64 h 431.03998 v -612.64 z" transform="translate(-406.56,-509.76001)" clip-rule="evenodd" id="path64-1"/></clipPath><clipPath clipPathUnits="userSpaceOnUse" id="clipPath66-3"><path d="m 181.44,255.03999 v 612.64 h 431.03998 v -612.64 z" transform="translate(-382.39999,-514.08002)" clip-rule="evenodd" id="path66-4"/></clipPath><clipPath clipPathUnits="userSpaceOnUse" id="clipPath68-6"><path d="m 181.44,255.03999 v 612.64 h 431.03998 v -612.64 z" transform="translate(-410.56,-520.64002)" clip-rule="evenodd" id="path68-1"/></clipPath><clipPath clipPathUnits="userSpaceOnUse" id="clipPath70-2"><path d="m 181.44,255.03999 v 612.64 h 431.03998 v -612.64 z" transform="translate(-408,-527.35999)" clip-rule="evenodd" id="path70-1"/></clipPath><clipPath clipPathUnits="userSpaceOnUse" id="clipPath72-0"><path d="m 181.44,255.03999 v 612.64 h 431.03998 v -612.64 z" transform="translate(-419.35999,-525.44001)" clip-rule="evenodd" id="path72-7"/></clipPath><clipPath clipPathUnits="userSpaceOnUse" id="clipPath74-9"><path d="m 181.44,255.03999 v 612.64 h 431.03998 v -612.64 z" transform="translate(-415.35999,-530.71998)" clip-rule="evenodd" id="path74-5"/></clipPath><clipPath clipPathUnits="userSpaceOnUse" id="clipPath76-8"><path d="m 181.44,255.03999 v 612.64 h 431.03998 v -612.64 z" transform="translate(-414.39999,-524)" clip-rule="evenodd" id="path76-6"/></clipPath><clipPath clipPathUnits="userSpaceOnUse" id="clipPath78-6"><path d="m 181.44,255.03999 v 612.64 h 431.03998 v -612.64 z" transform="translate(-405.92001,-536.32001)" clip-rule="evenodd" id="path78-4"/></clipPath><clipPath clipPathUnits="userSpaceOnUse" id="clipPath80-2"><path d="m 181.44,255.03999 v 612.64 h 431.03998 v -612.64 z" transform="translate(-410.88,-528.79999)" clip-rule="evenodd" id="path80-5"/></clipPath><clipPath clipPathUnits="userSpaceOnUse" id="clipPath82-7"><path d="m 181.44,255.03999 v 612.64 h 431.03998 v -612.64 z" transform="translate(-407.84,-537.59998)" clip-rule="evenodd" id="path82-2"/></clipPath><clipPath clipPathUnits="userSpaceOnUse" id="clipPath84-1"><path d="m 181.44,255.03999 v 612.64 h 431.03998 v -612.64 z" transform="translate(-384,-521.59998)" clip-rule="evenodd" id="path84-9"/></clipPath><clipPath clipPathUnits="userSpaceOnUse" id="clipPath86-2"><path d="m 181.44,255.03999 v 612.64 h 431.03998 v -612.64 z" transform="translate(-384.64001,-520.79999)" clip-rule="evenodd" id="path86-4"/></clipPath><clipPath clipPathUnits="userSpaceOnUse" id="clipPath88-2"><path d="m 181.44,255.03999 v 612.64 h 431.03998 v -612.64 z" transform="translate(-385.60001,-519.20002)" clip-rule="evenodd" id="path88-9"/></clipPath><clipPath clipPathUnits="userSpaceOnUse" id="clipPath90-0"><path d="m 181.44,255.03999 v 612.64 h 431.03998 v -612.64 z" transform="translate(-399.35999,-514.71998)" clip-rule="evenodd" id="path90-1"/></clipPath><clipPath clipPathUnits="userSpaceOnUse" id="clipPath92-0"><path d="m 181.44,255.03999 v 612.64 h 431.03998 v -612.64 z" transform="translate(-400.48001,-514.88001)" clip-rule="evenodd" id="path92-3"/></clipPath><clipPath clipPathUnits="userSpaceOnUse" id="clipPath94-0"><path d="m 181.44,255.03999 v 612.64 h 431.03998 v -612.64 z" transform="translate(-397.44,-522.71998)" clip-rule="evenodd" id="path94-2"/></clipPath><clipPath clipPathUnits="userSpaceOnUse" id="clipPath96-6"><path d="m 181.44,255.03999 v 612.64 h 431.03998 v -612.64 z" transform="translate(-403.04001,-568.32001)" clip-rule="evenodd" id="path96-6"/></clipPath><clipPath clipPathUnits="userSpaceOnUse" id="clipPath98-9"><path d="m 181.44,255.03999 v 612.64 h 431.03998 v -612.64 z" transform="translate(-383.35999,-530.40003)" clip-rule="evenodd" id="path98-0"/></clipPath><clipPath clipPathUnits="userSpaceOnUse" id="clipPath100-7"><path d="m 181.44,255.03999 v 612.64 h 431.03998 v -612.64 z" transform="translate(-396,-545.44001)" clip-rule="evenodd" id="path100-9"/></clipPath><clipPath clipPathUnits="userSpaceOnUse" id="clipPath102-7"><path d="m 181.44,255.03999 v 612.64 h 431.03998 v -612.64 z" transform="translate(-389.60001,-525.28003)" clip-rule="evenodd" id="path102-0"/></clipPath><clipPath clipPathUnits="userSpaceOnUse" id="clipPath104-4"><path d="m 181.44,255.03999 v 612.64 h 431.03998 v -612.64 z" transform="translate(-388.16,-541.76001)" clip-rule="evenodd" id="path104-2"/></clipPath><clipPath clipPathUnits="userSpaceOnUse" id="clipPath106-4"><path d="m 181.44,255.03999 v 612.64 h 431.03998 v -612.64 z" transform="translate(-370.07999,-566.88001)" clip-rule="evenodd" id="path106-1"/></clipPath><clipPath clipPathUnits="userSpaceOnUse" id="clipPath108-4"><path d="m 181.44,255.03999 v 612.64 h 431.03998 v -612.64 z" transform="translate(-381.28,-604.96003)" clip-rule="evenodd" id="path108-2"/></clipPath><clipPath clipPathUnits="userSpaceOnUse" id="clipPath110-5"><path d="m 181.44,255.03999 v 612.64 h 431.03998 v -612.64 z" transform="translate(-377.76001,-629.28003)" clip-rule="evenodd" id="path110-0"/></clipPath><clipPath clipPathUnits="userSpaceOnUse" id="clipPath112-7"><path d="m 181.44,255.03999 v 612.64 h 431.03998 v -612.64 z" transform="translate(-403.67999,-569.12)" clip-rule="evenodd" id="path112-2"/></clipPath><clipPath clipPathUnits="userSpaceOnUse" id="clipPath114-2"><path d="m 181.44,255.03999 v 612.64 h 431.03998 v -612.64 z" transform="translate(-404.95999,-563.03998)" clip-rule="evenodd" id="path114-2"/></clipPath><clipPath clipPathUnits="userSpaceOnUse" id="clipPath116-5"><path d="m 181.44,255.03999 v 612.64 h 431.03998 v -612.64 z" transform="translate(-406.23999,-565.59998)" clip-rule="evenodd" id="path116-4"/></clipPath><clipPath clipPathUnits="userSpaceOnUse" id="clipPath118-3"><path d="m 181.44,255.03999 v 612.64 h 431.03998 v -612.64 z" transform="translate(-405.28,-559.68)" clip-rule="evenodd" id="path118-5"/></clipPath><clipPath clipPathUnits="userSpaceOnUse" id="clipPath120-5"><path d="m 181.44,255.03999 v 612.64 h 431.03998 v -612.64 z" transform="translate(-410.07999,-557.59998)" clip-rule="evenodd" id="path120-4"/></clipPath><clipPath clipPathUnits="userSpaceOnUse" id="clipPath122-4"><path d="m 181.44,255.03999 v 612.64 h 431.03998 v -612.64 z" transform="translate(-407.20001,-554.56)" clip-rule="evenodd" id="path122-3"/></clipPath><clipPath clipPathUnits="userSpaceOnUse" id="clipPath124-5"><path d="m 181.44,255.03999 v 612.64 h 431.03998 v -612.64 z" transform="translate(-403.20001,-559.03998)" clip-rule="evenodd" id="path124-7"/></clipPath><clipPath clipPathUnits="userSpaceOnUse" id="clipPath126-3"><path d="m 181.44,255.03999 v 612.64 h 431.03998 v -612.64 z" transform="translate(-400.32001,-511.35999)" clip-rule="evenodd" id="path126-1"/></clipPath></defs><g id="g1" inkscape:groupmode="layer" inkscape:label="1" transform="matrix(0.26458333,0,0,0.26458333,165.08857,-173.0375)"><path id="path27-4" d="M 0,0 C -1.92,0.16 -4.16,0.16 -5.6,1.6 -8,3.36 -7.2,6.56 -4.32,7.04 -0.8,8 2.88,7.2 5.12,4.32 3.68,7.04 0.16,8.32 -2.88,7.68 -3.84,7.52 -4.96,7.36 -5.76,6.72 -7.52,5.44 -7.52,2.72 -5.92,1.28 -4.32,-0.16 -1.92,-0.32 0,0 Z" style="fill:#231f20;fill-opacity:1;fill-rule:nonzero;stroke:none" transform="translate(-616.85609,672.84744)" clip-path="url(#clipPath28-6)"/><path id="path29-9" d="m 0,0 c -0.16,-2.56 -3.04,-4.64 -5.6,-4.16 -1.44,0.32 -2.72,1.92 -2.4,3.52 -0.64,-1.44 0.32,-3.04 1.44,-3.52 C -3.68,-5.44 0,-3.04 0,0 Z" style="fill:#231f20;fill-opacity:1;fill-rule:nonzero;stroke:none" transform="translate(-609.01609,664.84741)" clip-path="url(#clipPath30-3)"/><path id="path31-5" d="m 0,0 c 0.32,-2.24 1.28,-4.8 -0.48,-6.72 0,0 0,0 0.16,0 0,0 0,0 0,0 0,0.16 -0.16,0.32 -0.16,0.48 -0.32,0.64 -0.96,1.12 -1.6,1.12 -0.32,0.16 -0.8,0.32 -0.96,0.48 -0.32,0.16 -0.48,0.64 -0.48,0.96 -0.48,1.6 -1.6,2.88 -2.72,4 -0.64,0.64 -1.12,1.28 -1.28,1.92 -0.32,1.12 -0.8,1.92 -1.6,2.72 -0.48,0.64 -0.8,1.76 0,2.4 0.96,0.48 2.24,0 3.2,-0.32 C -3.2,5.76 -0.48,3.04 0,0 Z m 0,0 c -0.64,3.84 -4,7.84 -8.16,8.16 -2.4,0 -2.4,-2.72 -0.96,-4 0.96,-0.8 0.96,-2.08 1.76,-3.04 0.8,-0.96 1.92,-1.6 2.56,-2.72 0.48,-0.64 0.8,-1.28 0.96,-2.08 0.16,-1.12 0.64,-1.6 1.6,-1.76 0.48,-0.16 0.8,-0.32 0.96,-0.64 0.16,-0.16 0.32,-0.48 0.48,-0.64 0.48,-0.96 0.96,0.16 1.28,0.64 C 1.44,-4 0.32,-1.92 0,0 Z" style="fill:#231f20;fill-opacity:1;fill-rule:nonzero;stroke:none" transform="translate(-606.29609,669.96743)" clip-path="url(#clipPath32-4)"/><path id="path33-6" d="M 0,0 C -0.64,3.68 -4,6.4 -7.84,5.44 V 5.28 c 0.32,0 0.48,0 0.64,0 0.48,0 0.96,0 1.28,0 C -2.72,4.8 -0.96,2.88 0,0 Z" style="fill:#231f20;fill-opacity:1;fill-rule:nonzero;stroke:none" transform="translate(-606.29609,670.44741)" clip-path="url(#clipPath34-4)"/><path id="path35-5" d="m 0,0 c -0.16,0 -0.32,0.16 -0.32,0.32 -0.16,0.16 -0.16,0.32 -0.32,0.48 0,0.16 0,0.48 0,0.64 -0.16,0.32 -0.32,0.8 -0.48,1.12 0,0.16 0,0.32 0,0.32 0.32,0.96 0.64,2.08 0.96,3.04 C 0.32,8 0.96,10.08 1.6,12.16 L 1.44,12 C 2.4,11.68 3.04,10.56 2.88,9.6 2.88,8.8 2.24,8 1.92,7.36 1.44,6.56 1.12,5.76 0.96,4.96 0.32,3.52 0.48,1.6 0,0 Z M 0,0 C 0.8,2.08 0.96,4.32 2.08,6.4 2.56,7.36 3.36,8.32 3.36,9.44 3.52,10.72 2.72,12 1.6,12.32 H 1.44 v 0 C 0.8,10.08 0.16,8.16 -0.64,6.08 -0.96,4.96 -1.28,4 -1.44,2.88 c -0.16,0 0,-0.16 0,-0.32 C -1.28,2.24 -0.96,1.76 -0.8,1.44 -0.64,0.96 -0.64,0.32 -0.16,0 Z" style="fill:#231f20;fill-opacity:1;fill-rule:nonzero;stroke:none" transform="translate(-606.7761,683.40744)" clip-path="url(#clipPath36-0)"/><path id="path37-2" d="M 0,0 C -0.96,0.64 -2.4,0.96 -3.2,0.16 -3.52,-0.16 -3.68,-0.48 -3.84,-0.8 -4.48,-2.24 -4.8,-3.52 -5.28,-4.96 -5.76,-6.4 -6.4,-9.44 -8,-10.08 c -0.16,-0.16 -0.32,-0.48 0,-0.64 0.16,0 0.64,0.16 0.8,0.16 0.32,0 0.64,0.16 0.96,0 -0.32,0.16 -0.64,0.16 -0.96,0 h -0.48 c -0.32,0 -0.64,0.16 -0.32,0.32 0.16,0 0.16,0 0.32,0 0.48,0.32 0.8,0.8 1.12,1.28 1.12,1.76 1.6,4 2.4,5.92 C -3.52,-0.64 -2.88,0.8 0,0 Z" style="fill:#231f20;fill-opacity:1;fill-rule:nonzero;stroke:none" transform="translate(-604.69611,695.40744)" clip-path="url(#clipPath38-9)"/><path id="path39-6" d="m 0,0 c 0.8,0 1.44,0.64 1.76,1.28 0.48,0.8 0.8,2.08 0.96,2.88 0,0 0.16,0 -0.16,-0.16 C 2.24,4.16 2.4,4.16 2.4,4.16 c 0,0 0,0.16 0,0.16 v 0 0 C 1.92,3.2 0.96,2.56 -0.16,2.08 -1.12,1.6 -0.64,0.48 0,0 Z m 0,0 c -0.32,0.64 -0.64,1.44 0,1.6 1.28,0.32 2.4,1.28 2.72,2.56 0.16,0 0.16,0.16 0.16,0.16 -0.16,0 0,0 -0.16,0.16 C 2.24,4.32 2.56,4.32 2.4,4.32 2.4,4.16 2.24,3.84 2.24,3.52 1.92,2.24 1.44,0.48 0,0 Z" style="fill:#231f20;fill-opacity:1;fill-rule:nonzero;stroke:none" transform="translate(-610.45609,683.08743)" clip-path="url(#clipPath40-3)"/><path id="path41-5" d="m 0,0 c -0.16,-2.56 -0.32,-6.56 -2.4,-8.32 -2.72,-2.24 -6.08,-1.28 -6.88,2.24 -0.96,3.52 3.36,6.4 6.24,7.52 L -3.36,1.6 C -3.04,0 -1.28,-0.32 0,0 Z m 0.16,0 c -1.28,0 -3.04,0.32 -3.2,1.92 L -3.2,1.76 c -3.36,-0.96 -7.52,-4 -6.56,-8 1.12,-3.52 4.64,-4.48 7.52,-2.4 2.4,1.6 2.56,6.08 2.4,8.64 z" style="fill:#231f20;fill-opacity:1;fill-rule:nonzero;stroke:none" transform="translate(-588.85609,663.72741)" clip-path="url(#clipPath42-2)"/><path id="path43-2" d="m 0,0 c 0.16,0.96 0.48,1.76 1.28,2.08 0.16,0 0.16,0 0.32,0.16 C 1.92,2.72 1.28,3.04 1.12,3.2 0.16,3.52 -0.8,3.52 -1.76,3.2 -3.68,2.88 -5.92,1.6 -7.04,-0.32 -7.52,-1.6 -7.36,-3.84 -5.6,-4 v 0 c -0.32,0.16 -0.64,0.32 -0.8,0.64 -0.64,0.8 -0.48,1.92 0,2.88 0.64,1.12 1.76,2.08 2.88,2.88 0.48,0.32 1.12,0.64 1.92,0.64 0.96,0.16 2.08,0 2.72,-0.48 0.16,-0.16 0,0 0.16,0 C 1.28,2.56 1.12,2.4 1.12,2.4 0.48,2.24 0.16,1.6 0,1.12 0,0.8 0,0.32 0,0 Z" style="fill:#231f20;fill-opacity:1;fill-rule:nonzero;stroke:none" transform="translate(-591.89609,665.48742)" clip-path="url(#clipPath44-7)"/><path id="path45-4" d="m 0,0 c -0.16,-3.04 0.48,-8.32 4.48,-8.32 1.76,0 3.68,0.32 4.96,1.6 1.12,1.44 1.6,3.36 0.96,5.12 C 9.28,0.32 7.2,1.44 5.28,2.24 4.48,2.4 2.24,3.04 2.24,1.76 2.4,0.48 0.96,0.32 0,0 Z m 0.16,0 c 0.96,0.16 2.4,0.32 2.4,1.6 0,0.48 0.32,0.32 0.64,0.48 1.92,0 3.84,-1.28 5.44,-2.4 1.6,-1.28 2.08,-3.52 1.12,-5.28 C 8.8,-7.52 6.56,-8.32 4.64,-8 3.84,-8 3.2,-7.84 2.72,-7.36 0.64,-5.6 0.32,-2.56 0.16,0 Z" style="fill:#231f20;fill-opacity:1;fill-rule:nonzero;stroke:none" transform="translate(-588.85609,663.72741)" clip-path="url(#clipPath46-5)"/><path id="path47-8" d="m 0,0 c 2.4,-0.8 5.28,0 6.4,2.24 0.48,0.8 0.64,1.6 0.32,2.4 C 5.28,7.52 0.48,8.48 -1.92,6.4 v 0 C -0.48,7.04 1.12,7.2 2.56,6.88 4,6.56 5.6,5.92 6.4,4.48 7.04,3.52 6.4,2.24 5.6,1.44 4,0.32 2.08,0 0,0 Z" style="fill:#231f20;fill-opacity:1;fill-rule:nonzero;stroke:none" transform="translate(-581.6561,664.6874)" clip-path="url(#clipPath48-9)"/><path id="path49-7" d="m 0,0 c 0.64,-0.16 2.4,-0.32 2.56,-1.12 0,-0.32 -0.16,-0.64 -0.32,-0.96 0.48,0.32 0.96,0.96 0.48,1.6 C 2.08,0.32 0.8,0.32 0,0 Z" style="fill:#231f20;fill-opacity:1;fill-rule:nonzero;stroke:none" transform="translate(-588.69611,667.88742)" clip-path="url(#clipPath50-6)"/><path id="path51-4" d="m 0,0 c 0.96,1.92 3.04,3.36 5.12,3.52 0.8,0 1.92,0 2.4,-0.8 C 7.68,2.72 7.68,2.56 7.68,2.4 7.52,1.76 6.88,1.12 6.4,0.64 L 6.08,0.32 C 5.44,-0.32 4.64,-0.64 3.68,-0.8 3.04,-0.8 2.24,-0.96 1.6,-1.44 v 0 c 0.64,0.32 1.44,0.32 2.24,0.32 1.6,-0.16 2.88,0.96 3.68,2.4 C 8.64,2.72 7.84,3.52 6.24,3.68 5.12,3.68 4,3.68 2.88,3.36 1.44,2.72 0.16,1.6 -0.16,0 Z" style="fill:#231f20;fill-opacity:1;fill-rule:nonzero;stroke:none" transform="translate(-592.2161,669.00741)" clip-path="url(#clipPath52-1)"/><path id="path53-0" d="m 0,0 c -1.92,-0.64 -3.52,-2.88 -3.36,-4.8 0.16,0.48 0.32,0.96 0.64,1.28 0.64,1.28 1.6,2.56 2.72,3.52 z" style="fill:#231f20;fill-opacity:1;fill-rule:nonzero;stroke:none" transform="translate(-590.45609,664.04742)" clip-path="url(#clipPath54-5)"/><path id="path55-9" d="M 0,0 C 0,-1.28 0,-2.56 0.32,-3.84 0.48,-4.16 0.8,-4.48 1.28,-4.8 v 0.16 C 0.96,-4 0.8,-3.2 0.48,-2.4 0.32,-1.76 0.16,-0.96 0,0 Z" style="fill:#231f20;fill-opacity:1;fill-rule:nonzero;stroke:none" transform="translate(-587.73609,664.04742)" clip-path="url(#clipPath56-9)"/><path id="path57-6" d="m 0,0 c 1.44,-0.48 2.56,-1.28 3.68,-2.24 v 0 c -0.16,0.8 -0.8,1.44 -1.6,1.6 C 1.44,-0.32 0.64,0 0,0 Z" style="fill:#231f20;fill-opacity:1;fill-rule:nonzero;stroke:none" transform="translate(-586.45609,665.00741)" clip-path="url(#clipPath58-7)"/><path id="path59-5" d="m 0,0 c -0.16,-1.44 -0.64,-2.72 -1.28,-4 v -0.16 c 0.8,0.32 1.12,1.12 1.28,1.92 0.16,0.8 0.16,1.6 0,2.24 z" style="fill:#231f20;fill-opacity:1;fill-rule:nonzero;stroke:none" transform="translate(-607.25611,672.6874)" clip-path="url(#clipPath60-8)"/><path id="path61-2" d="m 0,0 c 1.28,0.8 2.72,1.12 4.16,1.44 v 0 C 3.36,1.92 2.56,1.76 1.92,1.28 1.12,0.96 0.48,0.48 0,0 Z" style="fill:#231f20;fill-opacity:1;fill-rule:nonzero;stroke:none" transform="translate(-586.45609,667.72744)" clip-path="url(#clipPath62-6)"/><path id="path63-2" d="m 0,0 c 0.16,-0.48 0.32,-1.12 0.8,-1.44 0,-0.16 0.32,-0.32 0.48,-0.32 v 0 c 0,0.32 0,0.48 -0.16,0.64 -0.16,0.32 -0.48,0.48 -0.64,0.8 -0.16,0 -0.32,0.16 -0.32,0.32 z" style="fill:#231f20;fill-opacity:1;fill-rule:nonzero;stroke:none" transform="translate(-586.9361,664.20742)" clip-path="url(#clipPath64-3)"/><path id="path65-0" d="m 0,0 c -0.8,-1.44 -1.76,-2.72 -3.2,-3.52 -2.72,-0.96 -5.12,0.48 -4.64,3.52 0,0.8 0.16,1.6 0.64,2.24 0.32,0.48 1.12,0.96 1.76,1.28 0.8,0.32 1.6,0.16 2.4,0 v 0 C -4.48,4.64 -6.72,4 -7.68,2.56 -8.16,1.76 -8.32,0.8 -8.48,0 c 0,-1.76 0.8,-3.68 2.72,-3.84 C -4.48,-4 -3.04,-4 -1.92,-3.2 -0.96,-2.4 -0.16,-1.28 0,0 Z" style="fill:#231f20;fill-opacity:1;fill-rule:nonzero;stroke:none" transform="translate(-611.09611,668.52743)" clip-path="url(#clipPath66-3)"/><path id="path67-5" d="M 0,0 C 1.12,-1.12 3.04,-1.44 3.68,0.48 4,1.76 3.84,3.2 3.84,4.64 3.84,5.6 3.68,6.56 3.36,7.36 3.36,7.68 3.2,8 3.04,8.16 2.4,8.96 1.28,9.12 0.48,8.64 -0.48,8.16 -1.28,6.88 -0.48,5.92 v 0 C -1.12,7.2 0.8,8.8 2.08,8.32 2.4,8.16 2.72,7.52 2.88,7.36 3.04,6.4 3.36,5.44 3.52,4.64 3.84,3.04 4,0.64 2.56,-0.32 1.76,-0.64 0.8,-0.32 0,0 Z" style="fill:#231f20;fill-opacity:1;fill-rule:nonzero;stroke:none" transform="translate(-582.9361,675.08743)" clip-path="url(#clipPath68-6)"/><path id="path69-5" d="m 0,0 c -0.8,-1.28 -3.68,-4.16 -1.76,-5.44 0.48,-0.32 0.96,-0.16 1.28,-0.32 0.32,-0.16 0.48,-0.32 0.64,-0.64 0.32,-0.48 0.96,-0.8 1.6,-0.8 0.48,-0.16 0.96,0.32 0.96,0.96 0,0.64 -0.16,1.28 -0.16,1.92 -0.16,1.44 -0.32,2.72 -0.32,4 0,0.48 0,0.96 -0.16,1.44 C 1.6,2.24 0.48,0.48 0,0 Z m 0,-0.16 c 0.32,0.32 1.6,1.92 1.76,1.12 0.16,-0.32 0,-0.8 0,-1.28 0,-1.28 0,-2.72 0.32,-4 0,-0.48 0.16,-0.8 0.16,-1.28 0,-0.32 0.16,-0.96 0,-1.12 -0.48,-0.64 -1.6,-0.16 -1.92,0.32 0,0.16 0,0.32 -0.16,0.32 -0.16,0.48 -0.8,0.64 -1.12,0.64 -1.12,0.16 -1.12,0.96 -0.8,1.92 0.32,1.12 0.96,2.4 1.76,3.36 z" style="fill:#231f20;fill-opacity:1;fill-rule:nonzero;stroke:none" transform="translate(-585.4961,681.8074)" clip-path="url(#clipPath70-2)"/><path id="path71-4" d="M 0,0 C 1.12,-0.16 2.24,0 3.2,0.48 4,1.12 3.52,2.08 2.72,2.4 1.76,2.56 0.64,2.56 -0.32,3.04 -0.8,3.2 -1.44,3.68 -1.92,4 -2.56,4.32 -3.2,4.48 -4,4.64 -4.48,4.8 -4.96,4.96 -5.6,4.8 -5.76,4.8 -5.92,4.8 -6.08,4.48 -6.4,3.84 -6.24,3.04 -5.76,2.56 h 0.16 c -0.48,0.48 -0.64,1.28 -0.16,1.76 0.16,0.16 0.48,0.16 0.8,0.16 C -4,4.32 -3.04,3.84 -2.24,3.52 -1.6,3.2 -1.12,2.72 -0.48,2.56 0.64,2.24 1.6,2.56 2.56,2.08 2.88,2.08 3.2,1.76 3.2,1.44 3.36,0.96 2.4,0.64 2.08,0.48 1.44,0.32 0.8,0.16 0,0 Z" style="fill:#231f20;fill-opacity:1;fill-rule:nonzero;stroke:none" transform="translate(-574.13611,679.88742)" clip-path="url(#clipPath72-0)"/><path id="path73-3" d="M 0,0 C 0.16,0 0.32,-0.16 0.64,-0.16 0.8,0 0.96,0.32 0.96,0.48 c 0,0.48 0,0.8 0,1.28 C 0.8,2.72 0.48,3.68 0.16,4.64 0.16,4.8 0,4.96 0,5.12 0.64,5.44 1.6,5.28 2.24,5.12 3.68,4.32 4.32,2.08 4,0.64 3.52,-0.64 2.08,-1.28 0.96,-0.64 0.64,-0.48 0.16,-0.32 0,0 V 0 C 0,0.16 0,0.16 0,0 Z M 0,0.16 C 0,0 0,0 0,0 0.16,-0.32 0.48,-0.64 0.8,-0.8 1.92,-1.76 3.52,-1.28 4.32,-0.16 5.28,1.12 4.32,3.36 3.36,4.48 2.56,5.44 1.28,5.6 0.16,5.44 0,5.44 0,5.44 -0.16,5.28 -0.32,5.12 -0.32,4.96 -0.32,4.96 0,3.84 0.32,2.72 0.48,1.6 0.64,1.28 0.96,-0.32 0.16,0 0,0 0,0.16 0,0.16 Z" style="fill:#231f20;fill-opacity:1;fill-rule:nonzero;stroke:none" transform="translate(-578.13611,685.16739)" clip-path="url(#clipPath74-9)"/><path id="path75-6" d="m 0,0 c 0.16,-1.28 0.16,-4.16 2.08,-3.52 0.48,0.16 0.8,0.32 1.12,0.64 0.32,0.64 0.16,1.12 0.32,1.76 0.32,0.48 0.96,0.32 1.44,0.64 0.48,0.16 0.8,0.64 0.96,1.12 0,0 0,0.16 -0.16,0.32 C 5.6,1.12 5.44,1.28 5.28,1.28 4.32,1.76 3.2,1.92 2.24,2.4 1.6,2.88 0.16,3.84 -0.48,4.16 L -1.12,4.48 C -0.8,3.04 -0.32,1.44 0,0 Z M 0,0 C -0.16,1.28 -0.32,2.72 -0.48,4 L -0.8,3.84 C 0.32,2.88 1.6,1.92 3.04,1.6 3.84,1.28 4.96,1.28 5.6,0.8 c 0,0 0,0 0,-0.16 C 5.44,-0.32 4.8,-0.48 3.84,-0.64 3.68,-0.8 3.52,-0.8 3.36,-0.96 3.04,-1.44 3.04,-2.24 2.72,-2.56 2.56,-2.88 1.92,-3.2 1.6,-3.2 0.48,-3.04 0.16,-0.96 0,0 Z" style="fill:#231f20;fill-opacity:1;fill-rule:nonzero;stroke:none" transform="translate(-579.09611,678.44741)" clip-path="url(#clipPath76-8)"/><path id="path77-6" d="M 0,0 C -0.64,-1.28 -0.16,-2.88 0.8,-4 1.6,-4.96 2.4,-6.24 3.2,-7.2 2.88,-6.72 2.56,-6.08 2.24,-5.44 1.76,-4.48 1.12,-3.68 0.64,-2.72 0.16,-1.92 0,-0.96 0,0 Z" style="fill:#231f20;fill-opacity:1;fill-rule:nonzero;stroke:none" transform="translate(-587.57609,690.76742)" clip-path="url(#clipPath78-6)"/><path id="path79-8" d="m 0,0 c -0.32,1.92 -1.44,3.52 -2.72,4.96 l -0.8,0.8 c -0.32,0.48 -1.12,1.12 -0.8,1.76 0,0.16 0.48,0.64 0.64,0.64 0.8,0 1.12,-1.12 1.6,-1.76 1.12,-1.76 2.4,-3.52 4,-5.12 C 0.64,3.04 -0.64,4.8 -1.76,6.72 -2.24,7.68 -3.04,9.44 -4.48,8.32 -5.12,7.68 -5.12,7.04 -4.64,6.4 -4,5.44 -3.04,4.8 -2.4,3.84 -1.44,2.72 -0.48,1.44 0,0 Z" style="fill:#231f20;fill-opacity:1;fill-rule:nonzero;stroke:none" transform="translate(-582.6161,683.2474)" clip-path="url(#clipPath80-2)"/><path id="path81-4" d="M 0,0 C 0.8,0.16 1.6,-0.32 2.08,-0.96 2.4,-1.28 2.56,-1.76 2.88,-2.08 3.52,-3.2 4.48,-4.16 5.44,-5.12 6.08,-5.76 6.88,-6.24 7.52,-6.72 6.88,-6.08 6.4,-5.44 5.76,-4.8 4.96,-3.84 4,-2.88 3.2,-1.76 3.04,-1.44 2.72,-0.96 2.4,-0.64 1.92,0 0.8,0.32 0,0 Z" style="fill:#231f20;fill-opacity:1;fill-rule:nonzero;stroke:none" transform="translate(-585.6561,692.04739)" clip-path="url(#clipPath82-7)"/><path id="path83-2" d="M 0,0 C 1.28,0.48 2.08,1.76 2.72,2.88 3.68,4.16 4.64,4 5.76,3.2 5.6,3.36 5.44,3.68 5.12,3.84 3.2,5.28 2.08,2.72 1.44,1.44 0.96,0.96 0.64,0.48 0,0 Z" style="fill:#231f20;fill-opacity:1;fill-rule:nonzero;stroke:none" transform="translate(-609.4961,676.04739)" clip-path="url(#clipPath84-1)"/><path id="path85-9" d="M 0,0 C 1.12,0.16 2.08,1.12 2.72,2.08 3.2,3.04 4,3.68 5.12,4 3.52,4.16 2.4,2.88 1.76,1.6 1.28,0.96 0.8,0.48 0,0 Z" style="fill:#231f20;fill-opacity:1;fill-rule:nonzero;stroke:none" transform="translate(-608.85609,675.2474)" clip-path="url(#clipPath86-2)"/><path id="path87-7" d="M 0,0 C 2.4,0.8 4.16,3.04 4.32,5.6 L 4.16,5.44 C 4.32,5.28 4.48,4.96 4.48,4.64 4.48,2.08 2.72,0.32 1.28,-1.44 2.56,0 4.16,1.6 4.48,3.52 4.64,4.32 4.8,5.12 4.16,5.6 V 5.76 L 4,5.6 C 3.36,3.36 1.92,1.44 0,0 Z" style="fill:#231f20;fill-opacity:1;fill-rule:nonzero;stroke:none" transform="translate(-607.89609,673.64743)" clip-path="url(#clipPath88-2)"/><path id="path89-3" d="M 0,0 C 0.16,0.64 0,1.44 -0.32,2.08 -0.64,2.88 -1.12,3.36 -1.44,4 -2.08,5.12 -2.72,6.72 -1.92,8 -3.04,6.88 -2.56,4.96 -1.92,3.84 -1.6,3.04 -1.12,2.56 -0.8,1.92 -0.32,1.28 -0.16,0.64 0,0 Z" style="fill:#231f20;fill-opacity:1;fill-rule:nonzero;stroke:none" transform="translate(-594.13611,669.16739)" clip-path="url(#clipPath90-0)"/><path id="path91-1" d="M 0,0 C 0,2.08 -1.28,4 -2.24,5.76 -2.4,6.24 -2.88,6.88 -2.56,7.36 -2.4,7.68 -1.76,7.84 -1.6,7.52 -0.96,5.76 -0.32,4 0.64,2.4 0.8,2.08 0.96,1.76 1.12,1.6 c 0,0 0.16,0 0.16,0 0,0 -0.16,0 -0.16,0 C 0.96,1.92 0.8,2.08 0.8,2.4 0.48,3.04 0,4.64 -0.32,5.28 c -0.16,0.32 -0.8,2.24 -0.8,2.4 -0.48,0.8 -1.44,0.64 -1.92,0 C -3.36,7.36 -3.36,6.88 -3.2,6.4 -2.08,4.32 -0.48,2.24 0,0 Z" style="fill:#231f20;fill-opacity:1;fill-rule:nonzero;stroke:none" transform="translate(-593.01609,669.32742)" clip-path="url(#clipPath92-0)"/><path id="path93-6" d="m 0,0 c 1.28,0.64 2.4,-0.16 3.04,-1.28 0.64,-0.96 0.8,-2.4 1.6,-3.36 C 4.8,-4.96 5.28,-5.28 5.6,-5.28 5.28,-5.12 4.96,-4.8 4.8,-4.64 4.32,-3.52 4.32,-2.4 3.84,-1.44 3.2,0 1.44,1.28 0,0 Z" style="fill:#231f20;fill-opacity:1;fill-rule:nonzero;stroke:none" transform="translate(-596.0561,677.16739)" clip-path="url(#clipPath94-0)"/><path id="path95-6" d="m 0,0 c -1.6,6.88 -5.92,12.96 -11.84,16.799999 -1.6,0.960001 -3.36,1.92 -5.119999,2.560002 0,0 0.479999,1.279998 0.479999,1.279998 C -9.92,18.24 -4.64,13.12 -1.6,6.88 -0.64,5.12 0,3.2 0.48,1.28 0.48,1.12 0.32,0.8 0.32,0.64 0.16,0.48 0,0.16 0,0 Z" style="fill:#231f20;fill-opacity:1;fill-rule:nonzero;stroke:none" transform="translate(-590.45609,722.76742)" clip-path="url(#clipPath96-6)"/><path id="path97-3" d="M 0,0 C 1.28,3.68 2.56,7.36 3.52,11.2 2.88,9.28 2.24,7.52 1.6,5.6 1.12,4.32 0.48,2.88 0,1.6 -0.16,1.12 -0.32,0.64 -0.64,0.16 Z" style="fill:#231f20;fill-opacity:1;fill-rule:nonzero;stroke:none" transform="translate(-610.13611,684.84744)" clip-path="url(#clipPath98-9)"/><path id="path99-0" d="m 0,0 c 4.48,-0.8 8.64,-3.84 10.4,-8 0,-0.32 0,-0.64 0,-0.8 0,-0.16 0,-0.48 0,-0.64 -1.76,4.16 -5.92,7.2 -10.4,8 0,0 0.16,1.44 0,1.44 z" style="fill:#231f20;fill-opacity:1;fill-rule:nonzero;stroke:none" transform="translate(-597.4961,699.88742)" clip-path="url(#clipPath100-7)"/><path id="path101-4" d="m 0,0 c 1.12,2.08 2.56,4.16 4.16,6.08 0.96,1.28 1.92,2.56 2.4,4.16 -0.16,-0.48 0,-0.96 0,-1.28 C 6.08,7.36 5.12,5.92 4.16,4.64 2.56,2.72 1.12,0.8 0,-1.44 c 0,0.16 0,0.64 0,0.8 0,0.16 -0.16,0.48 0,0.64 z" style="fill:#231f20;fill-opacity:1;fill-rule:nonzero;stroke:none" transform="translate(-603.89609,679.72744)" clip-path="url(#clipPath102-7)"/><path id="path103-9" d="m 0,0 c 0.64,1.92 1.28,3.84 2.24,5.76 1.28,2.4 3.04,4.48 5.12,6.24 0,0 0,-0.64 0,-0.64 0,-0.16 0.16,-0.64 0,-0.64 C 5.28,8.96 3.52,6.72 2.24,4.32 1.28,2.56 0.64,0.64 0,-1.28 0,-1.12 0,-0.8 0,-0.64 0,-0.48 -0.16,-0.16 0,0 Z" style="fill:#231f20;fill-opacity:1;fill-rule:nonzero;stroke:none" transform="translate(-605.3361,696.20742)" clip-path="url(#clipPath104-4)"/><path id="path105-4" d="m 0,0 c -0.32,7.36 0,14.72 0.96,21.92 0.64,3.520001 1.92,7.039999 4,10.08 0.96,1.119999 5.12,7.360001 6.56,5.439999 0.8,-1.119999 0.64,-2.559998 0.8,-3.840001 C 12.32,30.879999 12,28.16 11.36,25.440001 10.72,22.4 9.76,19.360001 8.16,16.639999 6.88,14.72 5.44,12.96 4.16,11.04 2.56,8.8 0.96,6.4 0.64,3.52 0.48,2.56 0.48,1.76 0.64,0.8 0.64,0 0.96,-0.64 1.12,-1.28 1.12,-1.44 0.96,-1.6 0.8,-1.76 0.64,-1.92 0.48,-2.08 0.32,-1.92 -0.16,-1.44 0,-0.64 0,0 Z m -0.16,0 c 0,-0.48 0,-2.4 0.8,-2.08 0.32,0.16 0.64,0.48 0.48,0.8 0,0.8 -0.32,1.44 -0.32,2.08 -0.16,1.76 0.32,3.68 1.12,5.28 1.44,3.2 4.16,5.92 6.24,8.96 2.24,2.88 3.2,6.72 4,10.240001 0.48,2.719999 0.8,5.599998 0.64,8.319997 -0.16,1.440003 -0.16,5.120003 -2.4,4.480004 C 9.6,37.759998 8.8,37.119999 8.16,36.48 7.52,35.68 7.04,35.040001 6.4,34.240002 4.64,32.16 3.04,29.92 1.92,27.360001 -1.6,18.719999 -0.32,9.12 -0.16,0 Z" style="fill:#231f20;fill-opacity:1;fill-rule:nonzero;stroke:none" transform="translate(-623.41611,721.32742)" clip-path="url(#clipPath106-4)"/><path id="path107-7" d="m 0,0 c -0.32,-2.88 -0.96,-5.76 -1.6,-8.64 -0.64,-2.72 -1.44,-5.6 -2.88,-8.159999 C -5.28,-18.4 -6.24,-20 -7.2,-21.440001 -7.84,-22.4 -8.48,-23.360001 -8.96,-24.32 c -1.12,-2.720001 -1.6,-5.76 -1.28,-8.799999 v 0 c 0.32,2.879999 0.96,5.759998 2.24,8.32 0.48,1.279999 1.28,2.559999 2.08,3.84 1.44,2.559999 2.4,5.279999 3.52,7.999999 1.12,2.72 2.08,5.6 2.4,8.48 0.16,1.44 0.32,3.04 0.16,4.48 z" style="fill:#231f20;fill-opacity:1;fill-rule:nonzero;stroke:none" transform="translate(-612.2161,759.40744)" clip-path="url(#clipPath108-4)"/><path id="path109-3" d="m 0,0 c 1.28,-18.24 4.8,-36.48 11.68,-53.439999 1.76,-4.159999 3.52,-8.159999 4.16,-12.640003 1.440001,-11.040001 1.76,-22.879997 2.4,-33.919998 0.16,-2.24 0.639999,-4.64 1.76,-6.56 h 0.16 c -0.959999,2.08 -1.280001,4.32 -1.440001,6.56 0,6.720001 -0.16,13.919998 -0.319999,20.480003 -0.32,5.599999 -0.48,11.359993 -1.760001,16.959996 C 15.84,-59.200001 14.56,-56 13.28,-52.799999 11.52,-48.639999 9.92,-44.32 8.64,-40 4.48,-27.040001 2.08,-13.6 0.16,0 Z" style="fill:#231f20;fill-opacity:1;fill-rule:nonzero;stroke:none" transform="translate(-615.73609,783.72744)" clip-path="url(#clipPath110-5)"/><path id="path111-1" d="M 0,0 C 1.6,0.32 1.92,-0.96 2.24,-2.24 2.56,-3.52 2.4,-4.8 1.92,-5.92 1.76,-6.08 1.76,-6.24 1.76,-6.24 c 0,0 -0.16,-0.16 0,0 0,0 0,0 0,0 0.16,0 0.16,0 0.16,0 -0.16,0 -0.16,0 -0.16,0.16 C 1.28,-5.28 0.8,-4.32 0.48,-3.36 0.16,-2.56 -1.12,-0.48 0,0 Z m 0,0 c -0.8,-0.16 -0.64,-1.12 -0.64,-1.76 0,-1.28 0.64,-2.56 1.28,-3.68 0.32,-0.32 0.48,-0.8 0.96,-1.12 0,0 0,0 0.16,0 0.16,-0.16 0.32,0 0.32,0.16 0.32,1.44 0.8,2.72 0.64,4.32 C 2.4,-0.64 1.6,0.48 0,0 Z" style="fill:#231f20;fill-opacity:1;fill-rule:nonzero;stroke:none" transform="translate(-589.81611,723.56741)" clip-path="url(#clipPath112-7)"/><path id="path113-7" d="M 0,0 C 0.48,-0.8 -0.16,-1.76 -0.64,-2.4 L -0.8,-2.72 -0.96,-2.88 c 0,0 -0.16,0 -0.16,0 0,0 0,0.16 0,0.16 0,1.6 -0.8,3.04 -1.44,4.32 -0.64,1.44 -0.96,3.68 0.96,4.32 -1.44,0 -2.08,-1.6 -1.92,-2.72 0.16,-2.08 1.76,-3.84 1.92,-5.92 0,-0.64 0.64,-0.8 0.96,-0.48 C -0.16,-2.4 0.8,-0.8 0,0 Z" style="fill:#231f20;fill-opacity:1;fill-rule:nonzero;stroke:none" transform="translate(-588.53611,717.48739)" clip-path="url(#clipPath114-2)"/><path id="path115-5" d="m 0,0 c 0,-0.96 0.48,-1.76 1.12,-2.56 0.16,-0.16 0.32,-0.48 0.64,-0.48 0.32,0.16 0.48,0.48 0.48,0.64 0.16,2.24 -0.48,5.28 -2.88,5.92 2.08,-1.28 2.4,-3.84 2.4,-5.92 0,0 0,0 0,0 0,0 0,0 -0.16,0 C 0.96,-1.76 0.32,-0.96 0,0 Z" style="fill:#231f20;fill-opacity:1;fill-rule:nonzero;stroke:none" transform="translate(-587.25611,720.04739)" clip-path="url(#clipPath116-5)"/><path id="path117-9" d="m 0,0 c 0,-0.8 -0.96,-1.12 -1.28,-1.6 -0.16,-0.32 0,-0.48 0.32,-0.64 0.32,-0.16 0.96,-0.32 1.12,-0.8 0.16,-0.16 0.16,-0.32 0.32,-0.64 0,-2.08 4.8,-2.56 4.64,-0.16 0,0.8 -0.8,1.44 -1.28,1.92 -0.64,0.48 -1.44,0.64 -2.08,0.8 -0.32,0.16 -0.32,0.48 -0.32,0.8 0,0.48 -0.16,0.8 -0.32,1.12 0,0.16 -0.16,0.48 -0.16,0.64 C 1.12,1.76 1.28,1.76 1.44,1.92 1.92,2.4 1.92,3.2 1.12,2.72 0.32,1.92 0.16,0.96 0,0 Z M 0,0 C 0.16,0.96 0.32,1.92 1.12,2.56 1.76,3.04 1.76,2.4 1.28,2.08 0.64,1.76 0.64,1.28 0.96,0.64 0.96,0.32 1.12,0 1.12,-0.32 c 0,-0.16 0,-0.48 0.16,-0.8 0.16,-0.32 0.64,-0.48 0.96,-0.64 0.96,-0.32 2.08,-1.12 2.4,-2.08 0,-1.28 -1.76,-1.28 -2.56,-0.96 -0.8,0.16 -1.44,0.48 -1.44,1.28 -0.16,0.48 -0.48,0.96 -0.96,1.12 -0.32,0.16 -1.12,0.32 -0.96,0.8 C -0.96,-1.12 0,-0.8 0,0 Z" style="fill:#231f20;fill-opacity:1;fill-rule:nonzero;stroke:none" transform="translate(-588.2161,714.12741)" clip-path="url(#clipPath118-3)"/><path id="path119-1" d="M 0,0 C 0,-0.16 0.16,-0.32 0.32,0 0.48,0.16 0.48,0.48 0.64,0.8 0.8,0.96 0.8,1.12 0.96,1.12 1.92,0.8 1.12,-0.32 0.96,-0.8 0.64,-1.6 0.8,-2.56 1.12,-3.36 c 0.8,-1.6 2.56,-1.28 3.36,0.16 0.32,0.32 0.64,0.96 0.32,1.44 -0.32,0.32 -0.96,0.16 -1.28,0.48 -0.16,0.16 0,0.64 0,0.96 C 3.36,0.32 3.04,0.8 2.88,1.44 2.72,2.08 3.52,2.56 3.52,3.2 3.36,4.48 2.08,4.96 0.96,4.96 0.64,4.96 0.32,4.96 0,4.8 -0.64,4.48 -0.8,3.84 -1.44,4.16 -1.76,4.16 -1.92,4.32 -2.24,4.48 -2.56,4.64 -3.04,4.32 -3.04,4 -3.68,2.88 -2.88,1.44 -1.76,0.96 -1.12,0.64 -0.48,0.64 0,0 Z m 0,0 c -0.32,0.64 -1.12,0.8 -1.6,1.12 -0.8,0.32 -1.28,1.28 -1.12,2.24 0,0.16 0.16,0.48 0.32,0.48 C -2.4,4 -2.08,3.68 -1.76,3.52 -1.44,3.36 -0.8,3.36 -0.48,3.68 0,4.16 0.32,4.48 0.96,4.48 1.76,4.32 2.88,4 3.04,3.2 3.04,2.88 2.88,2.72 2.72,2.4 2.56,2.08 2.4,1.76 2.56,1.44 2.72,0.64 3.36,0 3.2,-0.96 3.2,-1.6 3.84,-1.6 4.32,-1.76 5.44,-1.92 4.16,-3.52 3.68,-3.68 c -1.12,-0.8 -2.24,0.16 -2.4,1.44 0,0.32 0,0.8 0,1.28 C 1.44,-0.48 1.76,0 1.6,0.48 1.76,0.96 1.12,1.44 0.8,1.12 0.48,0.96 0.48,-0.64 0,0 Z" style="fill:#231f20;fill-opacity:1;fill-rule:nonzero;stroke:none" transform="translate(-583.41611,712.04739)" clip-path="url(#clipPath120-5)"/><path id="path121-4" d="m 0,0 c -0.16,-1.76 0.64,-1.6 1.92,-1.6 0.48,0 0.96,-0.32 1.44,-0.32 0.16,0 0.48,0.16 0.64,0.32 0.16,0.16 0.32,0.32 0.48,0.48 C 4.32,-1.28 4.16,-1.44 4,-1.6 3.84,-1.76 3.52,-1.76 3.36,-1.76 c -0.32,0 -0.48,0.16 -0.64,0.16 -0.64,0.32 -1.44,0.32 -2.08,0.48 -0.16,0 -0.16,0.64 -0.16,0.96 z" style="fill:#231f20;fill-opacity:1;fill-rule:nonzero;stroke:none" transform="translate(-586.29609,709.00741)" clip-path="url(#clipPath122-4)"/><path id="path123-1" d="m 0,0 c -1.28,-1.28 -0.96,-3.36 0.8,-3.68 0,0 0,0 0,0.16 0,0 0,0 0,0 0,0 0,0 0,0 -0.48,-0.32 -1.12,-0.16 -1.6,-0.64 0,-0.32 -0.16,-0.64 0.16,-0.96 0.16,-0.16 0.32,-0.16 0.48,-0.32 C 0,-5.6 0,-6.08 0.48,-6.08 c 0.32,0.16 0.32,0.32 0.8,0.16 0.8,-0.48 1.92,-0.8 2.88,-0.64 0.32,0.16 0.96,0.32 1.12,0.16 0,-0.32 0,-0.96 -0.32,-1.12 -0.32,-0.16 -0.8,0 -1.12,0 -0.96,0 -1.6,0.32 -2.24,0.8 -0.16,0.16 -0.48,0.32 -0.64,0.16 -0.16,0 -0.16,0 -0.32,0 0,0 -0.16,0 -0.32,0.16 0.16,-0.16 0.32,-0.16 0.32,-0.16 0.16,0 0.16,0 0.32,0 0.16,0.16 0.48,0 0.64,-0.16 0.32,-0.16 0.64,-0.48 0.96,-0.64 0.8,-0.32 1.6,-0.48 2.4,-0.32 0.32,0.32 0.48,0.64 0.48,0.96 0,0.48 -0.16,0.64 -0.64,0.64 C 3.84,-6.4 2.72,-6.4 1.92,-5.92 1.6,-5.76 1.12,-5.28 0.64,-5.6 c -0.16,0 -0.16,-0.16 -0.32,-0.16 0,0 0.16,0 0.16,0 -0.16,0.16 -0.16,0.48 -0.48,0.64 -0.16,0.16 -0.32,0.32 -0.48,0.32 0,0 0,0.32 0.16,0.32 0.32,0.32 0.8,0.32 1.28,0.48 0.16,0.16 0.48,0.32 0.16,0.48 0,0.16 -0.32,0.32 -0.32,0.32 -0.8,0.16 -1.28,1.12 -0.96,1.76 0,0.48 0.32,0.8 0.48,0.96 z" style="fill:#231f20;fill-opacity:1;fill-rule:nonzero;stroke:none" transform="translate(-590.29609,713.48739)" clip-path="url(#clipPath124-5)"/><path id="path125-8" d="M 0,0 C 0,0.64 0.64,1.12 1.44,1.12 2.08,1.12 2.56,0.64 2.56,0 2.56,-0.64 1.76,-1.12 0.96,-1.12 0.32,-1.12 0,-0.64 0,0 Z" style="fill:#231f20;fill-opacity:1;fill-rule:nonzero;stroke:none" transform="translate(-593.17609,665.8074)" clip-path="url(#clipPath126-3)"/></g></svg>