<?xml version="1.0" standalone="no"?>
<!DOCTYPE svg PUBLIC "-//W3C//DTD SVG 1.1//EN" "http://www.w3.org/Graphics/SVG/1.1/DTD/svg11.dtd">
<svg xmlns:inkscape="http://www.inkscape.org/namespaces/inkscape" xmlns:sodipodi="http://sodipodi.sourceforge.net/DTD/sodipodi-0.dtd" xmlns="http://www.w3.org/2000/svg" xmlns:svg="http://www.w3.org/2000/svg" width="18.197233200073242" height="7.057503700256348" viewBox="0 0 18.197233 7.0575037" version="1.1" id="svg1" xml:space="preserve" inkscape:version="1.3.2 (091e20e, 2023-11-25, custom)" sodipodi:docname="kwiat.svg"><sodipodi:namedview id="namedview1" pagecolor="#ffffff" bordercolor="#999999" borderopacity="1" inkscape:showpageshadow="2" inkscape:pageopacity="0" inkscape:pagecheckerboard="0" inkscape:deskcolor="#d1d1d1" inkscape:document-units="mm" inkscape:zoom="2.768771" inkscape:cx="275.75411" inkscape:cy="717.10516" inkscape:window-width="1920" inkscape:window-height="991" inkscape:window-x="-9" inkscape:window-y="849" inkscape:window-maximized="1" inkscape:current-layer="g1"><inkscape:page x="2.3769267e-06" y="2.6205682e-06" width="18.197233" height="7.0575032" id="page3" margin="0" bleed="0"/></sodipodi:namedview><defs id="defs1"><clipPath clipPathUnits="userSpaceOnUse" id="clipPath42-2-6-3"><path d="m 181.44,255.03999 v 612.64 h 431.03998 v -612.64 z" transform="translate(-404.64001,-509.28)" clip-rule="evenodd" id="path42-1-4-1"/></clipPath><clipPath clipPathUnits="userSpaceOnUse" id="clipPath44-7-9-7"><path d="m 181.44,255.03999 v 612.64 h 431.03998 v -612.64 z" transform="translate(-401.60001,-511.04001)" clip-rule="evenodd" id="path44-5-2-5"/></clipPath><clipPath clipPathUnits="userSpaceOnUse" id="clipPath46-5-8-3"><path d="m 181.44,255.03999 v 612.64 h 431.03998 v -612.64 z" transform="translate(-404.64001,-509.28)" clip-rule="evenodd" id="path46-1-0-4"/></clipPath><clipPath clipPathUnits="userSpaceOnUse" id="clipPath48-9-8-9"><path d="m 181.44,255.03999 v 612.64 h 431.03998 v -612.64 z" transform="translate(-411.84,-510.23999)" clip-rule="evenodd" id="path48-7-7-4"/></clipPath><clipPath clipPathUnits="userSpaceOnUse" id="clipPath50-6-0-8"><path d="m 181.44,255.03999 v 612.64 h 431.03998 v -612.64 z" transform="translate(-404.79999,-513.44001)" clip-rule="evenodd" id="path50-3-9-7"/></clipPath><clipPath clipPathUnits="userSpaceOnUse" id="clipPath52-1-5-3"><path d="m 181.44,255.03999 v 612.64 h 431.03998 v -612.64 z" transform="translate(-401.28,-514.56)" clip-rule="evenodd" id="path52-9-3-8"/></clipPath><clipPath clipPathUnits="userSpaceOnUse" id="clipPath54-5-8-6"><path d="m 181.44,255.03999 v 612.64 h 431.03998 v -612.64 z" transform="translate(-403.04001,-509.60001)" clip-rule="evenodd" id="path54-3-8-8"/></clipPath><clipPath clipPathUnits="userSpaceOnUse" id="clipPath56-9-3-0"><path d="m 181.44,255.03999 v 612.64 h 431.03998 v -612.64 z" transform="translate(-405.76001,-509.60001)" clip-rule="evenodd" id="path56-6-0-2"/></clipPath><clipPath clipPathUnits="userSpaceOnUse" id="clipPath58-7-2-5"><path d="m 181.44,255.03999 v 612.64 h 431.03998 v -612.64 z" transform="translate(-407.04001,-510.56)" clip-rule="evenodd" id="path58-7-0-6"/></clipPath><clipPath clipPathUnits="userSpaceOnUse" id="clipPath62-6-7-4"><path d="m 181.44,255.03999 v 612.64 h 431.03998 v -612.64 z" transform="translate(-407.04001,-513.28003)" clip-rule="evenodd" id="path62-1-6-5"/></clipPath><clipPath clipPathUnits="userSpaceOnUse" id="clipPath64-3-7-8"><path d="m 181.44,255.03999 v 612.64 h 431.03998 v -612.64 z" transform="translate(-406.56,-509.76001)" clip-rule="evenodd" id="path64-1-9-8"/></clipPath><clipPath clipPathUnits="userSpaceOnUse" id="clipPath90-0-1-5"><path d="m 181.44,255.03999 v 612.64 h 431.03998 v -612.64 z" transform="translate(-399.35999,-514.71998)" clip-rule="evenodd" id="path90-1-9-4"/></clipPath><clipPath clipPathUnits="userSpaceOnUse" id="clipPath92-0-3-8"><path d="m 181.44,255.03999 v 612.64 h 431.03998 v -612.64 z" transform="translate(-400.48001,-514.88001)" clip-rule="evenodd" id="path92-3-0-5"/></clipPath><clipPath clipPathUnits="userSpaceOnUse" id="clipPath94-0-7-7"><path d="m 181.44,255.03999 v 612.64 h 431.03998 v -612.64 z" transform="translate(-397.44,-522.71998)" clip-rule="evenodd" id="path94-2-0-9"/></clipPath><clipPath clipPathUnits="userSpaceOnUse" id="clipPath126-3-2-4"><path d="m 181.44,255.03999 v 612.64 h 431.03998 v -612.64 z" transform="translate(-400.32001,-511.35999)" clip-rule="evenodd" id="path126-1-4-1"/></clipPath><clipPath clipPathUnits="userSpaceOnUse" id="clipPath28-6-6-1"><path d="m 181.44,255.03999 v 612.64 h 431.03998 v -612.64 z" transform="translate(-376.64001,-518.40003)" clip-rule="evenodd" id="path28-5-1-1"/></clipPath><clipPath clipPathUnits="userSpaceOnUse" id="clipPath30-3-4-4"><path d="m 181.44,255.03999 v 612.64 h 431.03998 v -612.64 z" transform="translate(-384.48001,-510.4)" clip-rule="evenodd" id="path30-3-9-4"/></clipPath><clipPath clipPathUnits="userSpaceOnUse" id="clipPath32-4-0-6"><path d="m 181.44,255.03999 v 612.64 h 431.03998 v -612.64 z" transform="translate(-387.20001,-515.52002)" clip-rule="evenodd" id="path32-2-0-4"/></clipPath><clipPath clipPathUnits="userSpaceOnUse" id="clipPath34-4-7-6"><path d="m 181.44,255.03999 v 612.64 h 431.03998 v -612.64 z" transform="translate(-387.20001,-516)" clip-rule="evenodd" id="path34-1-0-1"/></clipPath><clipPath clipPathUnits="userSpaceOnUse" id="clipPath60-8-5-4"><path d="m 181.44,255.03999 v 612.64 h 431.03998 v -612.64 z" transform="translate(-386.23999,-518.23999)" clip-rule="evenodd" id="path60-1-0-0"/></clipPath><clipPath clipPathUnits="userSpaceOnUse" id="clipPath66-3-1-6"><path d="m 181.44,255.03999 v 612.64 h 431.03998 v -612.64 z" transform="translate(-382.39999,-514.08002)" clip-rule="evenodd" id="path66-4-8-9"/></clipPath><clipPath clipPathUnits="userSpaceOnUse" id="clipPath84-1-5-3"><path d="m 181.44,255.03999 v 612.64 h 431.03998 v -612.64 z" transform="translate(-384,-521.59998)" clip-rule="evenodd" id="path84-9-9-9"/></clipPath><clipPath clipPathUnits="userSpaceOnUse" id="clipPath86-2-3-9"><path d="m 181.44,255.03999 v 612.64 h 431.03998 v -612.64 z" transform="translate(-384.64001,-520.79999)" clip-rule="evenodd" id="path86-4-5-7"/></clipPath><clipPath clipPathUnits="userSpaceOnUse" id="clipPath88-2-5-7"><path d="m 181.44,255.03999 v 612.64 h 431.03998 v -612.64 z" transform="translate(-385.60001,-519.20002)" clip-rule="evenodd" id="path88-9-0-7"/></clipPath><clipPath clipPathUnits="userSpaceOnUse" id="clipPath28-6-6-1-1"><path d="m 181.44,255.03999 v 612.64 h 431.03998 v -612.64 z" transform="translate(-376.64001,-518.40003)" clip-rule="evenodd" id="path28-5-1-1-8"/></clipPath><clipPath clipPathUnits="userSpaceOnUse" id="clipPath30-3-4-4-2"><path d="m 181.44,255.03999 v 612.64 h 431.03998 v -612.64 z" transform="translate(-384.48001,-510.4)" clip-rule="evenodd" id="path30-3-9-4-4"/></clipPath><clipPath clipPathUnits="userSpaceOnUse" id="clipPath32-4-0-6-3"><path d="m 181.44,255.03999 v 612.64 h 431.03998 v -612.64 z" transform="translate(-387.20001,-515.52002)" clip-rule="evenodd" id="path32-2-0-4-0"/></clipPath><clipPath clipPathUnits="userSpaceOnUse" id="clipPath34-4-7-6-2"><path d="m 181.44,255.03999 v 612.64 h 431.03998 v -612.64 z" transform="translate(-387.20001,-516)" clip-rule="evenodd" id="path34-1-0-1-3"/></clipPath><clipPath clipPathUnits="userSpaceOnUse" id="clipPath60-8-5-4-8"><path d="m 181.44,255.03999 v 612.64 h 431.03998 v -612.64 z" transform="translate(-386.23999,-518.23999)" clip-rule="evenodd" id="path60-1-0-0-1"/></clipPath><clipPath clipPathUnits="userSpaceOnUse" id="clipPath66-3-1-6-1"><path d="m 181.44,255.03999 v 612.64 h 431.03998 v -612.64 z" transform="translate(-382.39999,-514.08002)" clip-rule="evenodd" id="path66-4-8-9-3"/></clipPath><clipPath clipPathUnits="userSpaceOnUse" id="clipPath84-1-5-3-5"><path d="m 181.44,255.03999 v 612.64 h 431.03998 v -612.64 z" transform="translate(-384,-521.59998)" clip-rule="evenodd" id="path84-9-9-9-9"/></clipPath><clipPath clipPathUnits="userSpaceOnUse" id="clipPath86-2-3-9-5"><path d="m 181.44,255.03999 v 612.64 h 431.03998 v -612.64 z" transform="translate(-384.64001,-520.79999)" clip-rule="evenodd" id="path86-4-5-7-3"/></clipPath><clipPath clipPathUnits="userSpaceOnUse" id="clipPath88-2-5-7-1"><path d="m 181.44,255.03999 v 612.64 h 431.03998 v -612.64 z" transform="translate(-385.60001,-519.20002)" clip-rule="evenodd" id="path88-9-0-7-1"/></clipPath></defs><g id="g1" inkscape:groupmode="layer" inkscape:label="1" transform="matrix(0.26458333,0,0,0.26458333,114.94014,-53.321324)"><path id="path41-5-9-5" d="m 0,0 c -0.16,-2.56 -0.32,-6.56 -2.4,-8.32 -2.72,-2.24 -6.08,-1.28 -6.88,2.24 -0.96,3.52 3.36,6.4 6.24,7.52 L -3.36,1.6 C -3.04,0 -1.28,-0.32 0,0 Z m 0.16,0 c -1.28,0 -3.04,0.32 -3.2,1.92 L -3.2,1.76 c -3.36,-0.96 -7.52,-4 -6.56,-8 1.12,-3.52 4.64,-4.48 7.52,-2.4 2.4,1.6 2.56,6.08 2.4,8.64 z" style="fill:#231f20;fill-opacity:1;fill-rule:nonzero;stroke:none" transform="rotate(-21.125701,367.08519,1179.8133)" clip-path="url(#clipPath42-2-6-3)"/><path id="path43-2-7-5" d="m 0,0 c 0.16,0.96 0.48,1.76 1.28,2.08 0.16,0 0.16,0 0.32,0.16 C 1.92,2.72 1.28,3.04 1.12,3.2 0.16,3.52 -0.8,3.52 -1.76,3.2 -3.68,2.88 -5.92,1.6 -7.04,-0.32 -7.52,-1.6 -7.36,-3.84 -5.6,-4 v 0 c -0.32,0.16 -0.64,0.32 -0.8,0.64 -0.64,0.8 -0.48,1.92 0,2.88 0.64,1.12 1.76,2.08 2.88,2.88 0.48,0.32 1.12,0.64 1.92,0.64 0.96,0.16 2.08,0 2.72,-0.48 0.16,-0.16 0,0 0.16,0 C 1.28,2.56 1.12,2.4 1.12,2.4 0.48,2.24 0.16,1.6 0,1.12 0,0.8 0,0.32 0,0 Z" style="fill:#231f20;fill-opacity:1;fill-rule:nonzero;stroke:none" transform="rotate(-21.125701,373.32438,1187.0846)" clip-path="url(#clipPath44-7-9-7)"/><path id="path45-4-9-3" d="m 0,0 c -0.16,-3.04 0.48,-8.32 4.48,-8.32 1.76,0 3.68,0.32 4.96,1.6 1.12,1.44 1.6,3.36 0.96,5.12 C 9.28,0.32 7.2,1.44 5.28,2.24 4.48,2.4 2.24,3.04 2.24,1.76 2.4,0.48 0.96,0.32 0,0 Z m 0.16,0 c 0.96,0.16 2.4,0.32 2.4,1.6 0,0.48 0.32,0.32 0.64,0.48 1.92,0 3.84,-1.28 5.44,-2.4 1.6,-1.28 2.08,-3.52 1.12,-5.28 C 8.8,-7.52 6.56,-8.32 4.64,-8 3.84,-8 3.2,-7.84 2.72,-7.36 0.64,-5.6 0.32,-2.56 0.16,0 Z" style="fill:#231f20;fill-opacity:1;fill-rule:nonzero;stroke:none" transform="rotate(-21.125701,367.08519,1179.8133)" clip-path="url(#clipPath46-5-8-3)"/><path id="path47-8-7-5" d="m 0,0 c 2.4,-0.8 5.28,0 6.4,2.24 0.48,0.8 0.64,1.6 0.32,2.4 C 5.28,7.52 0.48,8.48 -1.92,6.4 v 0 C -0.48,7.04 1.12,7.2 2.56,6.88 4,6.56 5.6,5.92 6.4,4.48 7.04,3.52 6.4,2.24 5.6,1.44 4,0.32 2.08,0 0,0 Z" style="fill:#231f20;fill-opacity:1;fill-rule:nonzero;stroke:none" transform="rotate(-21.125701,366.05925,1160.0276)" clip-path="url(#clipPath48-9-8-9)"/><path id="path49-7-9-0" d="m 0,0 c 0.64,-0.16 2.4,-0.32 2.56,-1.12 0,-0.32 -0.16,-0.64 -0.32,-0.96 0.48,0.32 0.96,0.96 0.48,1.6 C 2.08,0.32 0.8,0.32 0,0 Z" style="fill:#231f20;fill-opacity:1;fill-rule:nonzero;stroke:none" transform="rotate(-21.125701,378.1596,1177.3043)" clip-path="url(#clipPath50-6-0-8)"/><path id="path51-4-8-7" d="m 0,0 c 0.96,1.92 3.04,3.36 5.12,3.52 0.8,0 1.92,0 2.4,-0.8 C 7.68,2.72 7.68,2.56 7.68,2.4 7.52,1.76 6.88,1.12 6.4,0.64 L 6.08,0.32 C 5.44,-0.32 4.64,-0.64 3.68,-0.8 3.04,-0.8 2.24,-0.96 1.6,-1.44 v 0 c 0.64,0.32 1.44,0.32 2.24,0.32 1.6,-0.16 2.88,0.96 3.68,2.4 C 8.64,2.72 7.84,3.52 6.24,3.68 5.12,3.68 4,3.68 2.88,3.36 1.44,2.72 0.16,1.6 -0.16,0 Z" style="fill:#231f20;fill-opacity:1;fill-rule:nonzero;stroke:none" transform="rotate(-21.125701,382.92267,1186.1826)" clip-path="url(#clipPath52-1-5-3)"/><path id="path53-0-2-1" d="m 0,0 c -1.92,-0.64 -3.52,-2.88 -3.36,-4.8 0.16,0.48 0.32,0.96 0.64,1.28 0.64,1.28 1.6,2.56 2.72,3.52 z" style="fill:#231f20;fill-opacity:1;fill-rule:nonzero;stroke:none" transform="rotate(-21.125701,368.74324,1183.9434)" clip-path="url(#clipPath54-5-8-6)"/><path id="path55-9-4-1" d="M 0,0 C 0,-1.28 0,-2.56 0.32,-3.84 0.48,-4.16 0.8,-4.48 1.28,-4.8 v 0.16 C 0.96,-4 0.8,-3.2 0.48,-2.4 0.32,-1.76 0.16,-0.96 0,0 Z" style="fill:#231f20;fill-opacity:1;fill-rule:nonzero;stroke:none" transform="rotate(-21.125701,367.38325,1176.6502)" clip-path="url(#clipPath56-9-3-0)"/><path id="path57-6-3-5" d="m 0,0 c 1.44,-0.48 2.56,-1.28 3.68,-2.24 v 0 c -0.16,0.8 -0.8,1.44 -1.6,1.6 C 1.44,-0.32 0.64,0 0,0 Z" style="fill:#231f20;fill-opacity:1;fill-rule:nonzero;stroke:none" transform="rotate(-21.125701,369.3173,1172.738)" clip-path="url(#clipPath58-7-2-5)"/><path id="path61-2-9-0" d="m 0,0 c 1.28,0.8 2.72,1.12 4.16,1.44 v 0 C 3.36,1.92 2.56,1.76 1.92,1.28 1.12,0.96 0.48,0.48 0,0 Z" style="fill:#231f20;fill-opacity:1;fill-rule:nonzero;stroke:none" transform="rotate(-21.125701,376.61063,1171.378)" clip-path="url(#clipPath62-6-7-4)"/><path id="path63-2-1-4" d="m 0,0 c 0.16,-0.48 0.32,-1.12 0.8,-1.44 0,-0.16 0.32,-0.32 0.48,-0.32 v 0 c 0,0.32 0,0.48 -0.16,0.64 -0.16,0.32 -0.48,0.48 -0.64,0.8 -0.16,0 -0.32,0.16 -0.32,0.32 z" style="fill:#231f20;fill-opacity:1;fill-rule:nonzero;stroke:none" transform="rotate(-21.125701,367.41226,1174.4251)" clip-path="url(#clipPath64-3-7-8)"/><path id="path89-3-2-3" d="M 0,0 C 0.16,0.64 0,1.44 -0.32,2.08 -0.64,2.88 -1.12,3.36 -1.44,4 -2.08,5.12 -2.72,6.72 -1.92,8 -3.04,6.88 -2.56,4.96 -1.92,3.84 -1.6,3.04 -1.12,2.56 -0.8,1.92 -0.32,1.28 -0.16,0.64 0,0 Z" style="fill:#231f20;fill-opacity:1;fill-rule:nonzero;stroke:none" transform="rotate(-21.125701,384.31163,1191.2508)" clip-path="url(#clipPath90-0-1-5)"/><path id="path91-1-3-5" d="M 0,0 C 0,2.08 -1.28,4 -2.24,5.76 -2.4,6.24 -2.88,6.88 -2.56,7.36 -2.4,7.68 -1.76,7.84 -1.6,7.52 -0.96,5.76 -0.32,4 0.64,2.4 0.8,2.08 0.96,1.76 1.12,1.6 c 0,0 0.16,0 0.16,0 0,0 -0.16,0 -0.16,0 C 0.96,1.92 0.8,2.08 0.8,2.4 0.48,3.04 0,4.64 -0.32,5.28 c -0.16,0.32 -0.8,2.24 -0.8,2.4 -0.48,0.8 -1.44,0.64 -1.92,0 C -3.36,7.36 -3.36,6.88 -3.2,6.4 -2.08,4.32 -0.48,2.24 0,0 Z" style="fill:#231f20;fill-opacity:1;fill-rule:nonzero;stroke:none" transform="rotate(-21.125701,384.18072,1188.1677)" clip-path="url(#clipPath92-0-3-8)"/><path id="path93-6-0-6" d="m 0,0 c 1.28,0.64 2.4,-0.16 3.04,-1.28 0.64,-0.96 0.8,-2.4 1.6,-3.36 C 4.8,-4.96 5.28,-5.28 5.6,-5.28 5.28,-5.12 4.96,-4.8 4.8,-4.64 4.32,-3.52 4.32,-2.4 3.84,-1.44 3.2,0 1.44,1.28 0,0 Z" style="fill:#231f20;fill-opacity:1;fill-rule:nonzero;stroke:none" transform="rotate(-21.125701,406.72235,1192.3989)" clip-path="url(#clipPath94-0-7-7)"/><path id="path125-8-5-3" d="M 0,0 C 0,0.64 0.64,1.12 1.44,1.12 2.08,1.12 2.56,0.64 2.56,0 2.56,-0.64 1.76,-1.12 0.96,-1.12 0.32,-1.12 0,-0.64 0,0 Z" style="fill:#231f20;fill-opacity:1;fill-rule:nonzero;stroke:none" transform="rotate(-21.125701,374.82235,1190.3567)" clip-path="url(#clipPath126-3-2-4)"/><path id="path27-4-1-0" d="M 0,0 C -1.92,0.16 -4.16,0.16 -5.6,1.6 -8,3.36 -7.2,6.56 -4.32,7.04 -0.8,8 2.88,7.2 5.12,4.32 3.68,7.04 0.16,8.32 -2.88,7.68 -3.84,7.52 -4.96,7.36 -5.76,6.72 -7.52,5.44 -7.52,2.72 -5.92,1.28 -4.32,-0.16 -1.92,-0.32 0,0 Z" style="fill:#231f20;fill-opacity:1;fill-rule:nonzero;stroke:none" transform="translate(-427.31871,219.20739)" clip-path="url(#clipPath28-6-6-1)"/><path id="path29-9-9-7" d="m 0,0 c -0.16,-2.56 -3.04,-4.64 -5.6,-4.16 -1.44,0.32 -2.72,1.92 -2.4,3.52 -0.64,-1.44 0.32,-3.04 1.44,-3.52 C -3.68,-5.44 0,-3.04 0,0 Z" style="fill:#231f20;fill-opacity:1;fill-rule:nonzero;stroke:none" transform="translate(-419.47871,211.20736)" clip-path="url(#clipPath30-3-4-4)"/><path id="path31-5-5-6" d="m 0,0 c 0.32,-2.24 1.28,-4.8 -0.48,-6.72 0,0 0,0 0.16,0 0,0 0,0 0,0 0,0.16 -0.16,0.32 -0.16,0.48 -0.32,0.64 -0.96,1.12 -1.6,1.12 -0.32,0.16 -0.8,0.32 -0.96,0.48 -0.32,0.16 -0.48,0.64 -0.48,0.96 -0.48,1.6 -1.6,2.88 -2.72,4 -0.64,0.64 -1.12,1.28 -1.28,1.92 -0.32,1.12 -0.8,1.92 -1.6,2.72 -0.48,0.64 -0.8,1.76 0,2.4 0.96,0.48 2.24,0 3.2,-0.32 C -3.2,5.76 -0.48,3.04 0,0 Z m 0,0 c -0.64,3.84 -4,7.84 -8.16,8.16 -2.4,0 -2.4,-2.72 -0.96,-4 0.96,-0.8 0.96,-2.08 1.76,-3.04 0.8,-0.96 1.92,-1.6 2.56,-2.72 0.48,-0.64 0.8,-1.28 0.96,-2.08 0.16,-1.12 0.64,-1.6 1.6,-1.76 0.48,-0.16 0.8,-0.32 0.96,-0.64 0.16,-0.16 0.32,-0.48 0.48,-0.64 0.48,-0.96 0.96,0.16 1.28,0.64 C 1.44,-4 0.32,-1.92 0,0 Z" style="fill:#231f20;fill-opacity:1;fill-rule:nonzero;stroke:none" transform="translate(-416.75871,216.32738)" clip-path="url(#clipPath32-4-0-6)"/><path id="path33-6-7-6" d="M 0,0 C -0.64,3.68 -4,6.4 -7.84,5.44 V 5.28 c 0.32,0 0.48,0 0.64,0 0.48,0 0.96,0 1.28,0 C -2.72,4.8 -0.96,2.88 0,0 Z" style="fill:#231f20;fill-opacity:1;fill-rule:nonzero;stroke:none" transform="translate(-416.75871,216.80736)" clip-path="url(#clipPath34-4-7-6)"/><path id="path59-5-9-6" d="m 0,0 c -0.16,-1.44 -0.64,-2.72 -1.28,-4 v -0.16 c 0.8,0.32 1.12,1.12 1.28,1.92 0.16,0.8 0.16,1.6 0,2.24 z" style="fill:#231f20;fill-opacity:1;fill-rule:nonzero;stroke:none" transform="translate(-417.71874,219.04735)" clip-path="url(#clipPath60-8-5-4)"/><path id="path65-0-4-6" d="m 0,0 c -0.8,-1.44 -1.76,-2.72 -3.2,-3.52 -2.72,-0.96 -5.12,0.48 -4.64,3.52 0,0.8 0.16,1.6 0.64,2.24 0.32,0.48 1.12,0.96 1.76,1.28 0.8,0.32 1.6,0.16 2.4,0 v 0 C -4.48,4.64 -6.72,4 -7.68,2.56 -8.16,1.76 -8.32,0.8 -8.48,0 c 0,-1.76 0.8,-3.68 2.72,-3.84 C -4.48,-4 -3.04,-4 -1.92,-3.2 -0.96,-2.4 -0.16,-1.28 0,0 Z" style="fill:#231f20;fill-opacity:1;fill-rule:nonzero;stroke:none" transform="translate(-421.55873,214.88738)" clip-path="url(#clipPath66-3-1-6)"/><path id="path83-2-3-6" d="M 0,0 C 1.28,0.48 2.08,1.76 2.72,2.88 3.68,4.16 4.64,4 5.76,3.2 5.6,3.36 5.44,3.68 5.12,3.84 3.2,5.28 2.08,2.72 1.44,1.44 0.96,0.96 0.64,0.48 0,0 Z" style="fill:#231f20;fill-opacity:1;fill-rule:nonzero;stroke:none" transform="translate(-419.95872,222.40734)" clip-path="url(#clipPath84-1-5-3)"/><path id="path85-9-4-4" d="M 0,0 C 1.12,0.16 2.08,1.12 2.72,2.08 3.2,3.04 4,3.68 5.12,4 3.52,4.16 2.4,2.88 1.76,1.6 1.28,0.96 0.8,0.48 0,0 Z" style="fill:#231f20;fill-opacity:1;fill-rule:nonzero;stroke:none" transform="translate(-419.31871,221.60735)" clip-path="url(#clipPath86-2-3-9)"/><path id="path87-7-7-1" d="M 0,0 C 2.4,0.8 4.16,3.04 4.32,5.6 L 4.16,5.44 C 4.32,5.28 4.48,4.96 4.48,4.64 4.48,2.08 2.72,0.32 1.28,-1.44 2.56,0 4.16,1.6 4.48,3.52 4.64,4.32 4.8,5.12 4.16,5.6 V 5.76 L 4,5.6 C 3.36,3.36 1.92,1.44 0,0 Z" style="fill:#231f20;fill-opacity:1;fill-rule:nonzero;stroke:none" transform="translate(-418.35871,220.00738)" clip-path="url(#clipPath88-2-5-7)"/><path id="path27-4-1-0-9" d="M 0,0 C -1.92,0.16 -4.16,0.16 -5.6,1.6 -8,3.36 -7.2,6.56 -4.32,7.04 -0.8,8 2.88,7.2 5.12,4.32 3.68,7.04 0.16,8.32 -2.88,7.68 -3.84,7.52 -4.96,7.36 -5.76,6.72 -7.52,5.44 -7.52,2.72 -5.92,1.28 -4.32,-0.16 -1.92,-0.32 0,0 Z" style="fill:#231f20;fill-opacity:1;fill-rule:nonzero;stroke:none" transform="matrix(-1,0,0,1,-372.74319,220.36114)" clip-path="url(#clipPath28-6-6-1-1)"/><path id="path29-9-9-7-5" d="m 0,0 c -0.16,-2.56 -3.04,-4.64 -5.6,-4.16 -1.44,0.32 -2.72,1.92 -2.4,3.52 -0.64,-1.44 0.32,-3.04 1.44,-3.52 C -3.68,-5.44 0,-3.04 0,0 Z" style="fill:#231f20;fill-opacity:1;fill-rule:nonzero;stroke:none" transform="matrix(-1,0,0,1,-380.58318,212.36111)" clip-path="url(#clipPath30-3-4-4-2)"/><path id="path31-5-5-6-6" d="m 0,0 c 0.32,-2.24 1.28,-4.8 -0.48,-6.72 0,0 0,0 0.16,0 0,0 0,0 0,0 0,0.16 -0.16,0.32 -0.16,0.48 -0.32,0.64 -0.96,1.12 -1.6,1.12 -0.32,0.16 -0.8,0.32 -0.96,0.48 -0.32,0.16 -0.48,0.64 -0.48,0.96 -0.48,1.6 -1.6,2.88 -2.72,4 -0.64,0.64 -1.12,1.28 -1.28,1.92 -0.32,1.12 -0.8,1.92 -1.6,2.72 -0.48,0.64 -0.8,1.76 0,2.4 0.96,0.48 2.24,0 3.2,-0.32 C -3.2,5.76 -0.48,3.04 0,0 Z m 0,0 c -0.64,3.84 -4,7.84 -8.16,8.16 -2.4,0 -2.4,-2.72 -0.96,-4 0.96,-0.8 0.96,-2.08 1.76,-3.04 0.8,-0.96 1.92,-1.6 2.56,-2.72 0.48,-0.64 0.8,-1.28 0.96,-2.08 0.16,-1.12 0.64,-1.6 1.6,-1.76 0.48,-0.16 0.8,-0.32 0.96,-0.64 0.16,-0.16 0.32,-0.48 0.48,-0.64 0.48,-0.96 0.96,0.16 1.28,0.64 C 1.44,-4 0.32,-1.92 0,0 Z" style="fill:#231f20;fill-opacity:1;fill-rule:nonzero;stroke:none" transform="matrix(-1,0,0,1,-383.30319,217.48113)" clip-path="url(#clipPath32-4-0-6-3)"/><path id="path33-6-7-6-6" d="M 0,0 C -0.64,3.68 -4,6.4 -7.84,5.44 V 5.28 c 0.32,0 0.48,0 0.64,0 0.48,0 0.96,0 1.28,0 C -2.72,4.8 -0.96,2.88 0,0 Z" style="fill:#231f20;fill-opacity:1;fill-rule:nonzero;stroke:none" transform="matrix(-1,0,0,1,-383.30319,217.96111)" clip-path="url(#clipPath34-4-7-6-2)"/><path id="path59-5-9-6-8" d="m 0,0 c -0.16,-1.44 -0.64,-2.72 -1.28,-4 v -0.16 c 0.8,0.32 1.12,1.12 1.28,1.92 0.16,0.8 0.16,1.6 0,2.24 z" style="fill:#231f20;fill-opacity:1;fill-rule:nonzero;stroke:none" transform="matrix(-1,0,0,1,-382.34315,220.2011)" clip-path="url(#clipPath60-8-5-4-8)"/><path id="path65-0-4-6-9" d="m 0,0 c -0.8,-1.44 -1.76,-2.72 -3.2,-3.52 -2.72,-0.96 -5.12,0.48 -4.64,3.52 0,0.8 0.16,1.6 0.64,2.24 0.32,0.48 1.12,0.96 1.76,1.28 0.8,0.32 1.6,0.16 2.4,0 v 0 C -4.48,4.64 -6.72,4 -7.68,2.56 -8.16,1.76 -8.32,0.8 -8.48,0 c 0,-1.76 0.8,-3.68 2.72,-3.84 C -4.48,-4 -3.04,-4 -1.92,-3.2 -0.96,-2.4 -0.16,-1.28 0,0 Z" style="fill:#231f20;fill-opacity:1;fill-rule:nonzero;stroke:none" transform="matrix(-1,0,0,1,-378.50316,216.04113)" clip-path="url(#clipPath66-3-1-6-1)"/><path id="path83-2-3-6-3" d="M 0,0 C 1.28,0.48 2.08,1.76 2.72,2.88 3.68,4.16 4.64,4 5.76,3.2 5.6,3.36 5.44,3.68 5.12,3.84 3.2,5.28 2.08,2.72 1.44,1.44 0.96,0.96 0.64,0.48 0,0 Z" style="fill:#231f20;fill-opacity:1;fill-rule:nonzero;stroke:none" transform="matrix(-1,0,0,1,-380.10317,223.56109)" clip-path="url(#clipPath84-1-5-3-5)"/><path id="path85-9-4-4-7" d="M 0,0 C 1.12,0.16 2.08,1.12 2.72,2.08 3.2,3.04 4,3.68 5.12,4 3.52,4.16 2.4,2.88 1.76,1.6 1.28,0.96 0.8,0.48 0,0 Z" style="fill:#231f20;fill-opacity:1;fill-rule:nonzero;stroke:none" transform="matrix(-1,0,0,1,-380.74319,222.7611)" clip-path="url(#clipPath86-2-3-9-5)"/><path id="path87-7-7-1-1" d="M 0,0 C 2.4,0.8 4.16,3.04 4.32,5.6 L 4.16,5.44 C 4.32,5.28 4.48,4.96 4.48,4.64 4.48,2.08 2.72,0.32 1.28,-1.44 2.56,0 4.16,1.6 4.48,3.52 4.64,4.32 4.8,5.12 4.16,5.6 V 5.76 L 4,5.6 C 3.36,3.36 1.92,1.44 0,0 Z" style="fill:#231f20;fill-opacity:1;fill-rule:nonzero;stroke:none" transform="matrix(-1,0,0,1,-381.70318,221.16113)" clip-path="url(#clipPath88-2-5-7-1)"/></g></svg>